<svg xmlns="http://www.w3.org/2000/svg" xmlns:xlink="http://www.w3.org/1999/xlink" width="500" zoomAndPan="magnify" viewBox="0 0 375 374.999991" height="500" preserveAspectRatio="xMidYMid meet" version="1.2"><defs><clipPath id="a952c4cd6b"><path d="M 158 118 L 215 118 L 215 190.710938 L 158 190.710938 Z M 158 118 "/></clipPath><clipPath id="c62aa79134"><path d="M 165 114.960938 L 172 114.960938 L 172 131 L 165 131 Z M 165 114.960938 "/></clipPath><clipPath id="72546a9b2b"><path d="M 177 114.960938 L 184 114.960938 L 184 131 L 177 131 Z M 177 114.960938 "/></clipPath><clipPath id="db07b5279c"><path d="M 188 114.960938 L 196 114.960938 L 196 131 L 188 131 Z M 188 114.960938 "/></clipPath><clipPath id="08c684626b"><path d="M 200 114.960938 L 208 114.960938 L 208 131 L 200 131 Z M 200 114.960938 "/></clipPath></defs><g id="97d8846fe4"><rect x="0" width="375" y="0" height="374.999991" style="fill:#ffffff;fill-opacity:1;stroke:none;"/><rect x="0" width="375" y="0" height="374.999991" style="fill:#ffffff;fill-opacity:1;stroke:none;"/><g clip-rule="nonzero" clip-path="url(#a952c4cd6b)"><path style=" stroke:none;fill-rule:nonzero;fill:#0c1459;fill-opacity:1;" d="M 214.550781 169.65625 C 214.496094 169.691406 213.289062 170.539062 212.652344 170.976562 C 211.9375 171.472656 212.027344 171.414062 211.644531 171.675781 C 211.097656 171.835938 210.675781 171.964844 210.136719 172.125 L 210.136719 186.3125 L 162.464844 186.3125 L 162.464844 122.894531 L 165.152344 122.894531 L 165.152344 118.480469 L 161.660156 118.480469 C 159.664062 118.480469 158.046875 120.101562 158.046875 122.089844 L 158.046875 187.113281 C 158.046875 189.109375 159.664062 190.726562 161.660156 190.726562 L 210.941406 190.726562 C 212.9375 190.726562 214.550781 189.109375 214.550781 187.113281 L 214.550781 169.65625 L 214.566406 169.644531 L 214.550781 169.65625 "/></g><path style=" stroke:none;fill-rule:nonzero;fill:#0c1459;fill-opacity:1;" d="M 177.070312 118.480469 L 171.679688 118.480469 L 171.679688 122.894531 L 177.070312 122.894531 L 177.070312 118.480469 "/><path style=" stroke:none;fill-rule:nonzero;fill:#0c1459;fill-opacity:1;" d="M 200.917969 118.480469 L 195.523438 118.480469 L 195.523438 122.894531 L 200.917969 122.894531 L 200.917969 118.480469 "/><path style=" stroke:none;fill-rule:nonzero;fill:#0c1459;fill-opacity:1;" d="M 188.992188 118.480469 L 183.597656 118.480469 L 183.597656 122.894531 L 188.992188 122.894531 L 188.992188 118.480469 "/><path style=" stroke:none;fill-rule:nonzero;fill:#0c1459;fill-opacity:1;" d="M 210.136719 146.109375 L 214.550781 142.644531 L 214.550781 122.089844 C 214.550781 120.101562 212.9375 118.480469 210.941406 118.480469 L 207.445312 118.480469 L 207.445312 122.894531 L 210.136719 122.894531 L 210.136719 146.109375 "/><g clip-rule="nonzero" clip-path="url(#c62aa79134)"><path style=" stroke:none;fill-rule:nonzero;fill:#0c1459;fill-opacity:1;" d="M 165.144531 127.140625 C 165.609375 130.980469 171.214844 130.960938 171.675781 127.140625 C 171.675781 126.699219 171.84375 125.285156 170.472656 124.179688 C 170.472656 121.308594 170.472656 119.417969 170.472656 115.726562 C 170.472656 115.296875 170.125 114.945312 169.691406 114.945312 L 167.128906 114.945312 C 166.703125 114.945312 166.351562 115.296875 166.351562 115.726562 C 166.351562 120.726562 166.351562 121.046875 166.351562 124.179688 C 165.011719 125.253906 165.144531 126.609375 165.144531 127.140625 "/></g><g clip-rule="nonzero" clip-path="url(#72546a9b2b)"><path style=" stroke:none;fill-rule:nonzero;fill:#0c1459;fill-opacity:1;" d="M 177.070312 127.140625 C 177.410156 129.964844 180.984375 131.074219 182.851562 128.859375 C 184.015625 127.480469 183.855469 125.355469 182.394531 124.179688 C 182.394531 121.050781 182.394531 118.703125 182.394531 115.726562 C 182.394531 115.296875 182.046875 114.945312 181.621094 114.945312 L 179.054688 114.945312 C 178.625 114.945312 178.273438 115.296875 178.273438 115.726562 C 178.273438 120.726562 178.273438 121.046875 178.273438 124.179688 C 176.921875 125.265625 177.070312 126.683594 177.070312 127.140625 "/></g><g clip-rule="nonzero" clip-path="url(#db07b5279c)"><path style=" stroke:none;fill-rule:nonzero;fill:#0c1459;fill-opacity:1;" d="M 189.746094 128.859375 C 191.613281 131.074219 195.183594 129.957031 195.523438 127.140625 C 195.523438 126.699219 195.699219 125.285156 194.320312 124.179688 C 194.320312 121.050781 194.320312 118.703125 194.320312 115.726562 C 194.320312 115.296875 193.972656 114.945312 193.542969 114.945312 L 190.976562 114.945312 C 190.550781 114.945312 190.199219 115.296875 190.199219 115.726562 C 190.199219 120.726562 190.199219 121.046875 190.199219 124.179688 C 188.753906 125.335938 188.566406 127.46875 189.746094 128.859375 "/></g><g clip-rule="nonzero" clip-path="url(#08c684626b)"><path style=" stroke:none;fill-rule:nonzero;fill:#0c1459;fill-opacity:1;" d="M 204.183594 130.035156 C 207.269531 130.035156 208.65625 126.117188 206.242188 124.179688 C 206.242188 121.050781 206.242188 118.703125 206.242188 115.726562 C 206.242188 115.296875 205.898438 114.945312 205.46875 114.945312 L 202.902344 114.945312 C 202.472656 114.945312 202.128906 115.296875 202.128906 115.726562 C 202.128906 120.726562 202.128906 121.046875 202.128906 124.179688 C 199.703125 126.125 201.101562 130.035156 204.183594 130.035156 "/></g><path style=" stroke:none;fill-rule:nonzero;fill:#0c1459;fill-opacity:1;" d="M 204.222656 134.996094 L 168.453125 134.996094 L 168.453125 136.199219 L 204.222656 136.199219 L 204.222656 134.996094 "/><path style=" stroke:none;fill-rule:nonzero;fill:#0c1459;fill-opacity:1;" d="M 204.222656 141.742188 L 168.453125 141.742188 L 168.453125 142.945312 L 204.222656 142.945312 L 204.222656 141.742188 "/><path style=" stroke:none;fill-rule:nonzero;fill:#0c1459;fill-opacity:1;" d="M 204.222656 148.488281 L 168.453125 148.488281 L 168.453125 149.691406 L 204.222656 149.691406 L 204.222656 148.488281 "/><path style=" stroke:none;fill-rule:nonzero;fill:#0c1459;fill-opacity:1;" d="M 202.460938 155.230469 C 198.597656 155.230469 172.285156 155.230469 168.453125 155.230469 C 168.453125 155.671875 168.453125 156 168.453125 156.4375 C 172.542969 156.4375 197.019531 156.4375 201.09375 156.4375 C 201.277344 156.277344 202.328125 155.355469 202.460938 155.230469 "/><path style=" stroke:none;fill-rule:nonzero;fill:#0c1459;fill-opacity:1;" d="M 168.453125 162.582031 L 168.453125 163.1875 L 196.957031 163.1875 L 197.660156 161.976562 L 168.453125 161.976562 L 168.453125 162.582031 "/><path style=" stroke:none;fill-rule:nonzero;fill:#0c1459;fill-opacity:1;" d="M 168.453125 169.328125 L 168.453125 169.933594 L 193.027344 169.933594 L 193.375 169.328125 L 193.726562 168.730469 L 168.453125 168.730469 L 168.453125 169.328125 "/><path style=" stroke:none;fill-rule:nonzero;fill:#0c1459;fill-opacity:1;" d="M 168.453125 176.074219 L 168.453125 176.679688 L 204.222656 176.679688 L 204.222656 175.476562 L 190.210938 175.476562 L 189.710938 175.621094 L 189.796875 175.476562 L 168.453125 175.476562 L 168.453125 176.074219 "/><path style=" stroke:none;fill-rule:nonzero;fill:#0c1459;fill-opacity:1;" d="M 253.949219 130.425781 C 248.667969 123.679688 248.25 122.449219 245.660156 122.449219 C 243.898438 122.449219 243.199219 123.253906 240.496094 125.378906 L 250.632812 138.316406 L 253.242188 136.273438 C 255.054688 134.855469 255.371094 132.234375 253.949219 130.425781 "/><path style=" stroke:none;fill-rule:nonzero;fill:#0c1459;fill-opacity:1;" d="M 235.246094 129.488281 C 238.972656 134.25 241.617188 137.613281 245.390625 142.433594 L 248.183594 140.238281 C 241.957031 132.289062 244.199219 135.148438 238.046875 127.296875 L 235.246094 129.488281 "/><path style=" stroke:none;fill-rule:nonzero;fill:#0c1459;fill-opacity:1;" d="M 194.019531 172.242188 C 194.320312 171.730469 193.554688 173.046875 200.390625 161.304688 C 202.542969 164.050781 203.890625 165.765625 206.167969 168.671875 C 193.5625 172.382812 195.3125 171.863281 194.019531 172.242188 Z M 232.796875 131.40625 C 229.457031 134.027344 206.546875 151.980469 203.027344 154.738281 C 203.015625 154.75 203.015625 154.746094 203.003906 154.757812 C 200.25 157.179688 200.769531 156.722656 200.664062 156.816406 C 200.238281 157.550781 190.214844 174.757812 189.710938 175.621094 C 193.015625 174.648438 208.808594 170.003906 210.585938 169.480469 C 212.664062 168.035156 210.734375 169.375 213.148438 167.703125 C 216.1875 165.320312 239.621094 146.953125 242.9375 144.351562 C 234.164062 133.152344 241.585938 142.621094 232.796875 131.40625 "/><g style="fill:#0c1459;fill-opacity:1;"><g transform="translate(43.980277, 230.390687)"><path style="stroke:none" d="M 15.46875 -6.734375 L 15.46875 -16.609375 L 14.046875 -16.609375 L 14.046875 -19.828125 L 20.96875 -19.796875 L 20.96875 -16.609375 L 19.578125 -16.609375 L 19.578125 0 L 16.359375 0 L 6.421875 -13.0625 L 6.421875 -3.234375 L 7.8125 -3.234375 L 7.8125 0 L 0.890625 0 L 0.890625 -3.234375 L 2.28125 -3.234375 L 2.28125 -16.609375 L 0.890625 -16.609375 L 0.890625 -19.828125 L 5.53125 -19.796875 Z M 15.46875 -6.734375 "/></g></g><g style="fill:#0c1459;fill-opacity:1;"><g transform="translate(78.687116, 230.390687)"><path style="stroke:none" d="M 11.484375 -17.015625 C 10.066406 -17.015625 8.921875 -16.691406 8.046875 -16.046875 C 7.171875 -15.410156 6.53125 -14.554688 6.125 -13.484375 C 5.726562 -12.421875 5.53125 -11.226562 5.53125 -9.90625 C 5.53125 -8.613281 5.726562 -7.425781 6.125 -6.34375 C 6.53125 -5.257812 7.171875 -4.394531 8.046875 -3.75 C 8.921875 -3.101562 10.066406 -2.78125 11.484375 -2.78125 C 12.898438 -2.78125 14.046875 -3.101562 14.921875 -3.75 C 15.796875 -4.394531 16.425781 -5.257812 16.8125 -6.34375 C 17.207031 -7.425781 17.40625 -8.613281 17.40625 -9.90625 C 17.40625 -11.226562 17.207031 -12.421875 16.8125 -13.484375 C 16.425781 -14.554688 15.796875 -15.410156 14.921875 -16.046875 C 14.046875 -16.691406 12.898438 -17.015625 11.484375 -17.015625 Z M 11.484375 -20.25 C 13.765625 -20.25 15.644531 -19.785156 17.125 -18.859375 C 18.613281 -17.929688 19.722656 -16.6875 20.453125 -15.125 C 21.179688 -13.5625 21.546875 -11.820312 21.546875 -9.90625 C 21.546875 -8 21.179688 -6.265625 20.453125 -4.703125 C 19.722656 -3.148438 18.613281 -1.910156 17.125 -0.984375 C 15.644531 -0.0546875 13.765625 0.40625 11.484375 0.40625 C 9.222656 0.40625 7.34375 -0.0546875 5.84375 -0.984375 C 4.351562 -1.910156 3.242188 -3.148438 2.515625 -4.703125 C 1.785156 -6.265625 1.421875 -8 1.421875 -9.90625 C 1.421875 -11.820312 1.785156 -13.5625 2.515625 -15.125 C 3.242188 -16.6875 4.351562 -17.929688 5.84375 -18.859375 C 7.34375 -19.785156 9.222656 -20.25 11.484375 -20.25 Z M 11.484375 -20.25 "/></g></g><g style="fill:#0c1459;fill-opacity:1;"><g transform="translate(114.505479, 230.390687)"><path style="stroke:none" d="M 0.59375 -19.828125 L 17.84375 -19.796875 L 17.84375 -14.640625 L 14.796875 -14.640625 L 14.609375 -16.578125 L 11.265625 -16.609375 L 11.265625 -3.234375 L 12.65625 -3.234375 L 12.65625 0 L 5.71875 0 L 5.71875 -3.234375 L 7.125 -3.234375 L 7.125 -16.609375 L 3.765625 -16.578125 L 3.609375 -14.640625 L 0.59375 -14.640625 Z M 0.59375 -19.828125 "/></g></g><g style="fill:#0c1459;fill-opacity:1;"><g transform="translate(145.723383, 230.390687)"><path style="stroke:none" d="M 0.890625 -19.796875 L 16.453125 -19.796875 L 16.453125 -15.03125 L 13.578125 -15.03125 L 13.40625 -16.609375 L 6.421875 -16.609375 L 6.421875 -11.515625 L 12.203125 -11.515625 L 12.203125 -8.3125 L 6.421875 -8.3125 L 6.421875 -3.234375 L 13.40625 -3.234375 L 13.578125 -4.78125 L 16.453125 -4.78125 L 16.453125 0 L 0.890625 0 L 0.890625 -3.234375 L 2.28125 -3.234375 L 2.28125 -16.609375 L 0.890625 -16.609375 Z M 0.890625 -19.796875 "/></g></g><g style="fill:#0c1459;fill-opacity:1;"><g transform="translate(175.582762, 230.390687)"><path style="stroke:none" d="M 15.46875 -6.734375 L 15.46875 -16.609375 L 14.046875 -16.609375 L 14.046875 -19.828125 L 20.96875 -19.796875 L 20.96875 -16.609375 L 19.578125 -16.609375 L 19.578125 0 L 16.359375 0 L 6.421875 -13.0625 L 6.421875 -3.234375 L 7.8125 -3.234375 L 7.8125 0 L 0.890625 0 L 0.890625 -3.234375 L 2.28125 -3.234375 L 2.28125 -16.609375 L 0.890625 -16.609375 L 0.890625 -19.828125 L 5.53125 -19.796875 Z M 15.46875 -6.734375 "/></g></g><g style="fill:#0c1459;fill-opacity:1;"><g transform="translate(210.289601, 230.390687)"><path style="stroke:none" d="M 0.890625 -19.796875 L 16.453125 -19.796875 L 16.453125 -15.03125 L 13.578125 -15.03125 L 13.40625 -16.609375 L 6.421875 -16.609375 L 6.421875 -11.515625 L 12.203125 -11.515625 L 12.203125 -8.3125 L 6.421875 -8.3125 L 6.421875 -3.234375 L 13.40625 -3.234375 L 13.578125 -4.78125 L 16.453125 -4.78125 L 16.453125 0 L 0.890625 0 L 0.890625 -3.234375 L 2.28125 -3.234375 L 2.28125 -16.609375 L 0.890625 -16.609375 Z M 0.890625 -19.796875 "/></g></g><g style="fill:#0c1459;fill-opacity:1;"><g transform="translate(240.148989, 230.390687)"><path style="stroke:none" d="M 15.1875 -13.546875 L 12.46875 -13.546875 L 12.34375 -15.5 C 11.914062 -15.925781 11.335938 -16.34375 10.609375 -16.75 C 9.878906 -17.164062 9 -17.375 7.96875 -17.375 C 7.144531 -17.375 6.472656 -17.179688 5.953125 -16.796875 C 5.441406 -16.421875 5.1875 -15.882812 5.1875 -15.1875 C 5.1875 -14.757812 5.316406 -14.382812 5.578125 -14.0625 C 5.847656 -13.738281 6.253906 -13.425781 6.796875 -13.125 L 12.84375 -10.0625 C 13.976562 -9.488281 14.800781 -8.804688 15.3125 -8.015625 C 15.820312 -7.222656 16.078125 -6.300781 16.078125 -5.25 C 16.078125 -4.050781 15.773438 -3.035156 15.171875 -2.203125 C 14.566406 -1.367188 13.71875 -0.722656 12.625 -0.265625 C 11.53125 0.179688 10.265625 0.40625 8.828125 0.40625 C 7.453125 0.40625 6.269531 0.222656 5.28125 -0.140625 C 4.289062 -0.515625 3.488281 -0.945312 2.875 -1.4375 C 2.269531 -1.9375 1.820312 -2.367188 1.53125 -2.734375 C 1.25 -3.109375 1.109375 -3.296875 1.109375 -3.296875 L 1.109375 -6.265625 L 3.765625 -6.265625 L 3.890625 -4.75 C 4.117188 -4.445312 4.441406 -4.113281 4.859375 -3.75 C 5.285156 -3.394531 5.828125 -3.085938 6.484375 -2.828125 C 7.140625 -2.566406 7.941406 -2.4375 8.890625 -2.4375 C 9.835938 -2.4375 10.585938 -2.617188 11.140625 -2.984375 C 11.703125 -3.359375 11.984375 -3.863281 11.984375 -4.5 C 11.984375 -4.914062 11.882812 -5.289062 11.6875 -5.625 C 11.488281 -5.96875 11.09375 -6.296875 10.5 -6.609375 L 4.65625 -9.578125 C 3.425781 -10.210938 2.523438 -10.90625 1.953125 -11.65625 C 1.390625 -12.40625 1.109375 -13.328125 1.109375 -14.421875 C 1.109375 -16.191406 1.71875 -17.601562 2.9375 -18.65625 C 4.164062 -19.71875 5.8125 -20.25 7.875 -20.25 C 9.164062 -20.25 10.273438 -20.054688 11.203125 -19.671875 C 12.128906 -19.296875 12.882812 -18.863281 13.46875 -18.375 C 14.0625 -17.894531 14.492188 -17.460938 14.765625 -17.078125 C 15.046875 -16.703125 15.1875 -16.515625 15.1875 -16.515625 Z M 15.1875 -13.546875 "/></g></g><g style="fill:#0c1459;fill-opacity:1;"><g transform="translate(269.94662, 230.390687)"><path style="stroke:none" d="M 0.59375 -19.828125 L 17.84375 -19.796875 L 17.84375 -14.640625 L 14.796875 -14.640625 L 14.609375 -16.578125 L 11.265625 -16.609375 L 11.265625 -3.234375 L 12.65625 -3.234375 L 12.65625 0 L 5.71875 0 L 5.71875 -3.234375 L 7.125 -3.234375 L 7.125 -16.609375 L 3.765625 -16.578125 L 3.609375 -14.640625 L 0.59375 -14.640625 Z M 0.59375 -19.828125 "/></g></g><g style="fill:#0c1459;fill-opacity:1;"><g transform="translate(301.164524, 230.390687)"><path style="stroke:none" d="M 9.109375 -6.921875 L 2.15625 -16.578125 L 0.59375 -16.578125 L 0.59375 -19.796875 L 8.0625 -19.796875 L 8.0625 -16.578125 L 6.484375 -16.578125 L 11.140625 -9.90625 L 15.8125 -16.578125 L 14.234375 -16.578125 L 14.234375 -19.796875 L 21.703125 -19.796875 L 21.703125 -16.578125 L 20.125 -16.578125 L 13.1875 -6.921875 L 13.1875 -3.21875 L 14.609375 -3.21875 L 14.609375 0 L 7.65625 0 L 7.65625 -3.21875 L 9.109375 -3.21875 Z M 9.109375 -6.921875 "/></g></g><g style="fill:#0c1459;fill-opacity:1;"><g transform="translate(153.672598, 254.258514)"><path style="stroke:none" d="M 0.328125 -9.609375 L 4.375 -9.609375 L 4.375 -7.546875 L 3.703125 -7.546875 L 3.703125 -2.078125 L 6.484375 -2.078125 L 6.59375 -2.828125 L 8.4375 -2.828125 L 8.4375 0 L 0.328125 0 L 0.328125 -2.078125 L 1 -2.078125 L 1 -7.546875 L 0.328125 -7.546875 Z M 0.328125 -9.609375 "/></g></g><g style="fill:#0c1459;fill-opacity:1;"><g transform="translate(163.853628, 254.258514)"><path style="stroke:none" d="M 5.765625 -7.75 C 5.148438 -7.75 4.660156 -7.613281 4.296875 -7.34375 C 3.929688 -7.082031 3.664062 -6.726562 3.5 -6.28125 C 3.34375 -5.84375 3.265625 -5.351562 3.265625 -4.8125 C 3.265625 -4.269531 3.34375 -3.773438 3.5 -3.328125 C 3.664062 -2.890625 3.929688 -2.535156 4.296875 -2.265625 C 4.660156 -2.003906 5.148438 -1.875 5.765625 -1.875 C 6.367188 -1.875 6.847656 -2.003906 7.203125 -2.265625 C 7.566406 -2.535156 7.828125 -2.890625 7.984375 -3.328125 C 8.140625 -3.773438 8.21875 -4.269531 8.21875 -4.8125 C 8.21875 -5.351562 8.140625 -5.84375 7.984375 -6.28125 C 7.828125 -6.726562 7.566406 -7.082031 7.203125 -7.34375 C 6.847656 -7.613281 6.367188 -7.75 5.765625 -7.75 Z M 5.765625 -9.84375 C 6.929688 -9.84375 7.894531 -9.613281 8.65625 -9.15625 C 9.414062 -8.707031 9.984375 -8.101562 10.359375 -7.34375 C 10.734375 -6.582031 10.921875 -5.738281 10.921875 -4.8125 C 10.921875 -3.882812 10.734375 -3.039062 10.359375 -2.28125 C 9.984375 -1.53125 9.414062 -0.929688 8.65625 -0.484375 C 7.894531 -0.0351562 6.929688 0.1875 5.765625 0.1875 C 4.597656 0.1875 3.628906 -0.0351562 2.859375 -0.484375 C 2.085938 -0.929688 1.515625 -1.53125 1.140625 -2.28125 C 0.765625 -3.039062 0.578125 -3.882812 0.578125 -4.8125 C 0.578125 -5.738281 0.765625 -6.582031 1.140625 -7.34375 C 1.515625 -8.101562 2.085938 -8.707031 2.859375 -9.15625 C 3.628906 -9.613281 4.597656 -9.84375 5.765625 -9.84375 Z M 5.765625 -9.84375 "/></g></g><g style="fill:#0c1459;fill-opacity:1;"><g transform="translate(176.838378, 254.258514)"><path style="stroke:none" d="M 4.265625 0 L 0.328125 0 L 0.328125 -2.078125 L 1 -2.078125 L 1 -7.546875 L 0.328125 -7.546875 L 0.328125 -9.609375 L 5.515625 -9.609375 C 6.066406 -9.609375 6.5625 -9.5 7 -9.28125 C 7.445312 -9.0625 7.796875 -8.742188 8.046875 -8.328125 C 8.304688 -7.921875 8.4375 -7.425781 8.4375 -6.84375 C 8.4375 -6.21875 8.289062 -5.691406 8 -5.265625 C 7.71875 -4.847656 7.335938 -4.535156 6.859375 -4.328125 L 8.25 -2.078125 L 9.140625 -2.078125 L 9.140625 0 L 6.609375 0 L 4.1875 -4.078125 L 3.703125 -4.078125 L 3.703125 -2.078125 L 4.265625 -2.078125 Z M 3.703125 -5.5625 L 4.734375 -5.5625 C 5.035156 -5.5625 5.28125 -5.65625 5.46875 -5.84375 C 5.664062 -6.03125 5.765625 -6.269531 5.765625 -6.5625 C 5.765625 -6.820312 5.671875 -7.050781 5.484375 -7.25 C 5.304688 -7.445312 5.054688 -7.546875 4.734375 -7.546875 L 3.703125 -7.546875 Z M 3.703125 -5.5625 "/></g></g><g style="fill:#0c1459;fill-opacity:1;"><g transform="translate(187.709097, 254.258514)"><path style="stroke:none" d="M 0.328125 -9.609375 L 8.4375 -9.609375 L 8.4375 -6.796875 L 6.59375 -6.796875 L 6.484375 -7.546875 L 3.703125 -7.546875 L 3.703125 -5.84375 L 6.375 -5.84375 L 6.375 -3.78125 L 3.703125 -3.78125 L 3.703125 -2.078125 L 6.484375 -2.078125 L 6.59375 -2.84375 L 8.4375 -2.84375 L 8.4375 0 L 0.328125 0 L 0.328125 -2.078125 L 1 -2.078125 L 1 -7.546875 L 0.328125 -7.546875 Z M 0.328125 -9.609375 "/></g></g><g style="fill:#0c1459;fill-opacity:1;"><g transform="translate(197.890126, 254.258514)"><path style="stroke:none" d="M 7.265625 -4.390625 L 7.265625 -7.546875 L 6.578125 -7.546875 L 6.578125 -9.625 L 10.640625 -9.609375 L 10.640625 -7.546875 L 9.953125 -7.546875 L 9.953125 0 L 7.875 0 L 3.703125 -5.234375 L 3.703125 -2.078125 L 4.375 -2.078125 L 4.375 0 L 0.328125 0 L 0.328125 -2.078125 L 1 -2.078125 L 1 -7.546875 L 0.328125 -7.546875 L 0.328125 -9.625 L 3.09375 -9.609375 Z M 7.265625 -4.390625 "/></g></g><g style="fill:#0c1459;fill-opacity:1;"><g transform="translate(210.335129, 254.258514)"><path style="stroke:none" d="M 4.15625 -9.609375 L 6.859375 -9.609375 L 10.015625 -2.078125 L 10.734375 -2.078125 L 10.734375 0 L 6.4375 0 L 6.4375 -2.078125 L 7.21875 -2.078125 L 6.859375 -3.171875 L 4.15625 -3.171875 L 3.796875 -2.078125 L 4.59375 -2.078125 L 4.59375 0 L 0.28125 0 L 0.28125 -2.078125 L 0.984375 -2.078125 Z M 4.78125 -5.015625 L 6.234375 -5.015625 L 5.515625 -7.203125 Z M 4.78125 -5.015625 "/></g></g></g></svg>